<svg xmlns="http://www.w3.org/2000/svg" viewBox="0 0 1378 196.69"><defs><style>.cls-1{fill:#2a66c6;}.cls-2{fill:#f4ad21;}</style></defs><g id="Capa_2" data-name="Capa 2"><g id="Capa_1-2" data-name="Capa 1"><path class="cls-1" d="M424.19,16.74a8,8,0,0,1,3.22,3.34q1,2.05-.39,4.89L405.28,55.84a5,5,0,0,1-3,2.51,5.7,5.7,0,0,1-3.92-1.09,49.11,49.11,0,0,0-13.9-7.34,49.83,49.83,0,0,0-16.07-2.57,46.58,46.58,0,0,0-34.73,14.92,50.57,50.57,0,0,0-10,16.21,56.11,56.11,0,0,0,0,39.55,49.76,49.76,0,0,0,10,16.08A46.83,46.83,0,0,0,368.37,149a50.07,50.07,0,0,0,30.22-10,5.91,5.91,0,0,1,3.86-1.16,5.25,5.25,0,0,1,3.09,2.31l22,31.65q1.41,2.82.38,4.76a8.31,8.31,0,0,1-3.21,3.21,102.49,102.49,0,0,1-26,12.54,96.39,96.39,0,0,1-29.39,4.44,97.25,97.25,0,0,1-49.66-13.38,99.64,99.64,0,0,1-35.24-35.18,95.71,95.71,0,0,1-9.9-23.41,98.71,98.71,0,0,1,9.9-75.89,99.75,99.75,0,0,1,15.37-20,96,96,0,0,1,19.87-15.37,100.76,100.76,0,0,1,23.48-9.91,99.63,99.63,0,0,1,55.31.77A100.06,100.06,0,0,1,424.19,16.74Z"/><path class="cls-1" d="M449.4,8.76a6.12,6.12,0,0,1,1.48-4.31,5.37,5.37,0,0,1,4.17-1.61H582.66A5.68,5.68,0,0,1,587,4.51,6.34,6.34,0,0,1,588.58,9V40.81A6.71,6.71,0,0,1,587,45a5.36,5.36,0,0,1-4.5,2H499.18V78.87H563.5a6.76,6.76,0,0,1,4,1.15,4.44,4.44,0,0,1,1.61,3.86v27.79a5.29,5.29,0,0,1-1.42,3.47,5.09,5.09,0,0,1-4.11,1.67H499.18v32.93h86.44q5.79,0,5.79,5.9V188a3.16,3.16,0,0,1-1,2.31c-.34,2.4-2.1,3.59-5.27,3.59H455.05a6,6,0,0,1-4.11-1.35,5.29,5.29,0,0,1-1.54-4.18Z"/><path class="cls-1" d="M677.72,7.86a3.7,3.7,0,0,1,.84-1.67,9.18,9.18,0,0,1,1.73-1.67,9.5,9.5,0,0,1,2.19-1.23,6,6,0,0,1,2.19-.45H717.6a5.49,5.49,0,0,1,3.73,1.35,17,17,0,0,1,2.31,2.38l3.22,7.34,67.53,174.16c.68,1.72.56,3.11-.39,4.18s-2.57,1.61-4.89,1.61H752.2a8.06,8.06,0,0,1-4.57-1.09,7.08,7.08,0,0,1-2.51-3.67q-2.57-6.56-5-13T735.22,163h-68.3q-2.45,6.56-5,13.06t-5,13a6.43,6.43,0,0,1-6.56,4.76h-38a6.26,6.26,0,0,1-4-1.29c-1.07-.85-1.26-2.14-.58-3.85Zm23.41,55.06q-2.45,6.56-5,14.14t-4.95,15.31q-2.44,7.72-5,15.24t-4.95,14.09h39.49Z"/><path class="cls-1" d="M812.39,8.76a6.28,6.28,0,0,1,1.42-4.31,5.36,5.36,0,0,1,4.24-1.61h82.2A55.92,55.92,0,0,1,917,5.29,57.17,57.17,0,0,1,931.38,12a59,59,0,0,1,11.83,10.29,65.84,65.84,0,0,1,14.54,27.53A63.32,63.32,0,0,1,955.5,88a62.41,62.41,0,0,1-11.9,19.68,60.56,60.56,0,0,1-18.53,13.95,54.37,54.37,0,0,1-23.92,5.47h-39v61.23q0,5.53-5.91,5.53H818.05a6,6,0,0,1-4.11-1.35,5.26,5.26,0,0,1-1.55-4.18ZM909.25,65.1a23.3,23.3,0,0,0-1.35-7.72A21.59,21.59,0,0,0,904,50.5a21.09,21.09,0,0,0-6.24-5,17.52,17.52,0,0,0-8.3-1.93H862.17v43h27.27a18.44,18.44,0,0,0,8.36-1.86A19.29,19.29,0,0,0,904,79.89a21.14,21.14,0,0,0,3.86-6.81A24,24,0,0,0,909.25,65.1Z"/><path class="cls-1" d="M977.55,8.76A6.28,6.28,0,0,1,979,4.45a5.36,5.36,0,0,1,4.24-1.61h83.1a62.44,62.44,0,0,1,24.82,5,64.77,64.77,0,0,1,20.2,13.44,62.76,62.76,0,0,1,13.57,19.87,60.15,60.15,0,0,1,4.95,24.25A57.45,57.45,0,0,1,1127.47,82a62.32,62.32,0,0,1-16.72,27.27,66.09,66.09,0,0,1-12.8,9.58L1131,181.13q.9,1.8,2.32,4.24a8.85,8.85,0,0,1,1.41,4.25,3.82,3.82,0,0,1-1.35,3.15,5.65,5.65,0,0,1-3.67,1.09H1085.6a6.4,6.4,0,0,1-3.92-1.29,5.78,5.78,0,0,1-2.25-3.47l-31.26-58.78h-20.84v58q0,5.53-5.91,5.53H983.21a6,6,0,0,1-4.11-1.35,5.26,5.26,0,0,1-1.55-4.18Zm100.72,57.11a22.31,22.31,0,0,0-1.41-7.71,25.38,25.38,0,0,0-4-7.08,23.58,23.58,0,0,0-6.18-5.4,21.1,21.1,0,0,0-8-2.83L1052,42.4q-3.17-.19-6.88-.19h-17.76v47.2H1051c1.54,0,2.92,0,4.12-.13s2.53-.21,4-.38a20.17,20.17,0,0,0,8.1-2.64,21.06,21.06,0,0,0,6-5.27,23.07,23.07,0,0,0,3.73-7.08A25.53,25.53,0,0,0,1078.27,65.87Z"/><path class="cls-1" d="M1144.26,98.55a97.47,97.47,0,0,1,3.47-26.18,98.57,98.57,0,0,1,9.91-23.54,99.8,99.8,0,0,1,15.38-20,96.16,96.16,0,0,1,19.89-15.37,100.65,100.65,0,0,1,23.49-9.91,98.43,98.43,0,0,1,52.32,0,100.46,100.46,0,0,1,23.56,9.91,97.59,97.59,0,0,1,20,15.37,96.6,96.6,0,0,1,15.38,20,101.93,101.93,0,0,1,9.91,23.54,98.54,98.54,0,0,1,0,52.35,99.35,99.35,0,0,1-9.91,23.41,96.53,96.53,0,0,1-15.38,19.81,100.5,100.5,0,0,1-20,15.37,97.19,97.19,0,0,1-23.56,9.91,98.25,98.25,0,0,1-95.7-25.28,99.75,99.75,0,0,1-15.38-19.81,96.12,96.12,0,0,1-9.91-23.41A97.4,97.4,0,0,1,1144.26,98.55Zm49.78-.13a54.69,54.69,0,0,0,3.59,19.93,49.21,49.21,0,0,0,10.09,16.15,46.81,46.81,0,0,0,15.35,10.8,50.62,50.62,0,0,0,39.11,0,46.58,46.58,0,0,0,15.42-10.8,49.21,49.21,0,0,0,10.09-16.15,57,57,0,0,0,0-39.81,49.86,49.86,0,0,0-10.09-16.27,47.94,47.94,0,0,0-69.88,0,49.86,49.86,0,0,0-10.09,16.27A55,55,0,0,0,1194,98.42Z"/><path class="cls-1" d="M1355.15,4.29a22.51,22.51,0,0,1,11.49,3.12,23.06,23.06,0,0,1,10.53,13.72,22.66,22.66,0,0,1-2.29,17.61,23.18,23.18,0,0,1-8.24,8.22,23.84,23.84,0,0,1-5.49,2.32,23.09,23.09,0,0,1-12.16,0,22.9,22.9,0,0,1-10.1-5.9,23.19,23.19,0,0,1-3.59-4.65,23.47,23.47,0,0,1-2.32-5.49,22.71,22.71,0,0,1,2.3-17.61,22.36,22.36,0,0,1,3.59-4.63A23.14,23.14,0,0,1,1349,5.11,22.58,22.58,0,0,1,1355.15,4.29Zm0,7a15.79,15.79,0,0,0-4.25.57,16.6,16.6,0,0,0-3.82,1.61,16,16,0,0,0-3.24,2.48,15.52,15.52,0,0,0-2.49,3.21,16.11,16.11,0,0,0-1.6,3.79,15.35,15.35,0,0,0-.56,4.19,15.65,15.65,0,0,0,.57,4.26,16.25,16.25,0,0,0,4.1,7.05,16.13,16.13,0,0,0,3.22,2.49,15.85,15.85,0,0,0,14.2.91,16.19,16.19,0,0,0,5.07-3.42,16.45,16.45,0,0,0,3.42-5,15.73,15.73,0,0,0,.68-10.4,15.93,15.93,0,0,0-11.11-11.13A15.3,15.3,0,0,0,1355.12,11.29Zm-8.63,5.63a.78.78,0,0,1,.2-.58.72.72,0,0,1,.51-.18h10.67a7.35,7.35,0,0,1,2.78.64,7.57,7.57,0,0,1,2.24,1.58,7.13,7.13,0,0,1,2,5,7.29,7.29,0,0,1-.94,3.69,6.83,6.83,0,0,1-2.6,2.6l3.75,7.89a.12.12,0,0,0,0,.09.12.12,0,0,1,0,.09c0,.35-.24.53-.71.53H1359c-.26,0-.45-.16-.58-.48l-3.27-7.2h-1.94v7.05a.56.56,0,0,1-.2.48.81.81,0,0,1-.51.15h-5.27a.79.79,0,0,1-.49-.15.52.52,0,0,1-.22-.48Zm11.8,6.4a2,2,0,0,0-.14-.7,2.35,2.35,0,0,0-.41-.63,2.69,2.69,0,0,0-.63-.46,1.76,1.76,0,0,0-.79-.18h-3.14v3.93h3.14a1.9,1.9,0,0,0,2-2Z"/><path class="cls-2" d="M64.11,132.88a48.64,48.64,0,0,1,64.39-72.8,5.7,5.7,0,0,0,7,.16,63,63,0,0,0,23.31-34.52,5.75,5.75,0,0,0-2.07-6.06A97.88,97.88,0,0,0,36.11,173.8,63,63,0,0,1,64.11,132.88Z"/><path class="cls-1" d="M158.79,170.05a63,63,0,0,0-23.31-34.53,5.7,5.7,0,0,0-7,.16,48.46,48.46,0,0,1-30.62,10.85c-.83,0-1.65,0-2.47-.06-.32,0-.64-.05-1-.07-.49,0-1-.06-1.48-.11s-.81-.1-1.22-.15-.79-.09-1.17-.15-.93-.16-1.39-.24-.65-.11-1-.18c-.5-.1-1-.22-1.5-.34-.27-.06-.54-.11-.8-.18-.55-.14-1.08-.29-1.62-.45l-.64-.18c-.58-.18-1.14-.37-1.7-.56l-.51-.18c-.6-.21-1.19-.44-1.77-.68l-.39-.15c-.62-.26-1.22-.53-1.82-.81l-.28-.12q-.94-.45-1.86-.93l-.19-.1c-.64-.33-1.26-.69-1.88-1l-.11-.06c-.64-.38-1.26-.77-1.88-1.17l0,0c-.63-.41-1.25-.84-1.86-1.28h0a48.71,48.71,0,0,1-5.23-4.4h0a63,63,0,0,0-28,40.92h0q3.14,2.55,6.47,4.84l.07,0,1.51,1,.29.19c.48.31,1,.62,1.45.92.11.08.23.15.35.22.48.31,1,.6,1.46.9l.31.18c.51.3,1,.61,1.55.9h0c1.72,1,3.46,1.9,5.24,2.77l.24.12,1.43.68.57.26,1.34.61.68.29,1.31.56.73.3,1.3.52.73.27,1.34.5.56.2c.89.32,1.78.62,2.67.91l.82.26c.38.13.78.24,1.17.36l1,.29,1.13.32,1.07.29,1.1.28,1.13.28,1.07.25,1.21.26c.34.07.67.15,1,.21l1.41.27.83.16,2.21.37.75.1,1.55.22.91.11,1.41.16,1,.1,1.4.12,1,.07,1.44.1.92.05,1.58.06.78,0q1.18,0,2.37,0a97.44,97.44,0,0,0,58.84-19.66A5.74,5.74,0,0,0,158.79,170.05Z"/><path class="cls-1" d="M74.49,101l-.36-.13c-6.6,15.87,6.83,34.3,23.75,33.8,16.92.52,30.39-18,23.73-33.82l-.36.15L100.47,109a8.4,8.4,0,0,1-5.47-.1Z"/><path class="cls-1" d="M134.65,83.69,99.34,69a4.11,4.11,0,0,0-2.81,0L61.07,83.71a3.94,3.94,0,0,0-2.61,3.83,4,4,0,0,0,2.8,3.81c3.1,1.2,16,6.14,18.81,7.2l16.46,6.31a4,4,0,0,0,2.59,0c8-3.1,22.11-8.45,30-11.5v14.8a4.88,4.88,0,0,0,2.19-1,4.8,4.8,0,0,0,2.08,1V91.75C137.69,91,138.93,85.46,134.65,83.69Z"/><path class="cls-1" d="M131.48,109l1,2a.24.24,0,0,0,.18.13l2.19.32a.24.24,0,0,1,.13.4l-1.58,1.55a.21.21,0,0,0-.07.21l.37,2.17a.24.24,0,0,1-.34.26l-2-1a.22.22,0,0,0-.22,0l-2,1a.24.24,0,0,1-.34-.26l.37-2.17a.23.23,0,0,0-.07-.21l-1.58-1.55a.24.24,0,0,1,.13-.4l2.19-.32a.24.24,0,0,0,.18-.13l1-2A.23.23,0,0,1,131.48,109Z"/><rect class="cls-1" x="207.35" y="2.61" width="19.88" height="190.6" rx="3.45"/></g></g></svg>